<svg xmlns="http://www.w3.org/2000/svg" xmlns:xlink="http://www.w3.org/1999/xlink" x="0px" y="0px"
	 width="20px" height="20px" viewBox="0 0 20 20" enable-background="new 0 0 20 20" xml:space="preserve">
<path fill="#036BC3" d="M4.3,7.85h2.34V16H4.3L4.3,7.85L4.3,7.85z M5.41,6.83H5.4C4.55,6.83,4,6.21,4,5.42C4,4.61,4.56,4,5.43,4
	c0.86,0,1.39,0.61,1.41,1.41C6.84,6.2,6.29,6.83,5.41,6.83z M16,16h-2.65v-4.22c0-1.1-0.42-1.86-1.33-1.86c-0.7,0-1.09,0.51-1.27,1
	c-0.07,0.17-0.06,0.42-0.06,0.67V16H8.07V7.85h2.63v1.28c0.15-0.56,1-1.36,2.34-1.36c1.66,0,2.97,1.17,2.97,3.7V16z"/>
</svg>
