<svg xmlns="http://www.w3.org/2000/svg" xmlns:xlink="http://www.w3.org/1999/xlink" x="0px" y="0px"
	 width="20px" height="20px" viewBox="0 0 20 20" enable-background="new 0 0 20 20" xml:space="preserve">
<path fill="#50AAF1" d="M15.35,5.9c0.61-0.39,1.06-0.98,1.26-1.67c-0.56,0.35-1.18,0.6-1.82,0.73C14.26,4.35,13.5,4,12.69,4
	c-1.59,0-2.87,1.36-2.87,3.03c0,0.24,0.02,0.47,0.07,0.69c-2.39-0.13-4.5-1.33-5.92-3.16C3.72,5.02,3.58,5.54,3.59,6.08
	c0,1.05,0.51,1.98,1.28,2.52c-0.46-0.02-0.91-0.15-1.3-0.38v0.04c0,1.47,0.99,2.69,2.31,2.97c-0.25,0.07-0.5,0.11-0.76,0.11
	c-0.18,0-0.36-0.02-0.54-0.05c0.37,1.2,1.43,2.08,2.68,2.1C6.07,14.37,4.53,14.83,3,14.64C4.3,15.52,5.83,16,7.4,16
	c5.28,0,8.17-4.62,8.17-8.62c0-0.13,0-0.26-0.01-0.39c0.57-0.43,1.05-0.97,1.43-1.57C16.48,5.66,15.93,5.82,15.35,5.9z"/>
</svg>
