<svg xmlns="http://www.w3.org/2000/svg" width="211px" height="40px" viewBox="0 0 211 40">
<g>
	<path fill="#4a4e51" d="M209.01,3.963c0-0.066-0.011-0.129-0.035-0.191c-0.024-0.061-0.063-0.116-0.121-0.16
		c-0.057-0.046-0.133-0.081-0.228-0.11c-0.099-0.028-0.219-0.044-0.366-0.044c-0.118,0-0.213,0.002-0.28,0.004
		c-0.068,0.002-0.123,0.007-0.16,0.011v0.971c0.086,0.015,0.239,0.021,0.463,0.021c0.267,0,0.458-0.05,0.565-0.146
		C208.955,4.224,209.01,4.105,209.01,3.963z M209.542,3.956c0,0.189-0.046,0.349-0.14,0.482c-0.09,0.131-0.215,0.234-0.371,0.305
		c0.114,0.167,0.226,0.355,0.336,0.568c0.111,0.212,0.206,0.408,0.289,0.587h-0.597c-0.023-0.05-0.057-0.125-0.103-0.219
		s-0.092-0.193-0.143-0.293c-0.048-0.101-0.099-0.2-0.151-0.294c-0.053-0.097-0.097-0.169-0.134-0.221
		c-0.023,0.006-0.07,0.008-0.14,0.011c-0.068,0.002-0.134,0.004-0.2,0.004c-0.067,0-0.134-0.002-0.203-0.004
		c-0.068-0.002-0.123-0.009-0.167-0.018v1.035h-0.502V3.367c0-0.175,0.127-0.276,0.382-0.305c0.129-0.016,0.293-0.022,0.495-0.022
		c0.407,0,0.734,0.07,0.979,0.21C209.42,3.389,209.542,3.625,209.542,3.956z M206.451,4.531c0,0.289,0.053,0.557,0.158,0.809
		c0.103,0.25,0.245,0.469,0.423,0.656c0.18,0.186,0.391,0.333,0.632,0.44c0.241,0.105,0.502,0.16,0.78,0.16s0.539-0.055,0.778-0.16
		c0.24-0.107,0.451-0.254,0.631-0.44c0.18-0.187,0.322-0.406,0.426-0.656c0.103-0.252,0.155-0.52,0.155-0.809
		c0-0.29-0.053-0.559-0.155-0.809c-0.104-0.25-0.246-0.469-0.426-0.653s-0.391-0.329-0.631-0.436c-0.239-0.105-0.5-0.16-0.778-0.16
		s-0.539,0.055-0.78,0.16c-0.241,0.107-0.452,0.252-0.632,0.436c-0.178,0.184-0.32,0.403-0.423,0.653
		C206.504,3.972,206.451,4.241,206.451,4.531z M205.886,4.531c0-0.355,0.065-0.686,0.202-0.998c0.134-0.309,0.317-0.581,0.548-0.811
		c0.232-0.232,0.502-0.417,0.813-0.55c0.309-0.134,0.64-0.202,0.995-0.202c0.353,0,0.686,0.068,0.995,0.202
		c0.309,0.134,0.578,0.318,0.811,0.55c0.232,0.23,0.415,0.502,0.549,0.811C210.935,3.845,211,4.175,211,4.531
		c0,0.355-0.065,0.686-0.201,0.997c-0.134,0.309-0.316,0.579-0.549,0.811c-0.232,0.232-0.502,0.417-0.811,0.55
		c-0.31,0.134-0.643,0.202-0.995,0.202c-0.355,0-0.687-0.068-0.995-0.202c-0.312-0.134-0.581-0.318-0.813-0.55
		c-0.23-0.232-0.414-0.502-0.548-0.811C205.951,5.217,205.886,4.886,205.886,4.531z M26.206,19.313c0-2.584,0.792-4.585,2.376-6.001
		c1.585-1.419,3.777-2.129,6.583-2.129c1.767,0,3.205,0.248,4.312,0.738c1.107,0.491,1.659,1.243,1.659,2.254
		c0,0.476-0.133,0.94-0.399,1.39c-0.267,0.449-0.482,0.729-0.651,0.842c-0.478-0.226-1.065-0.435-1.765-0.632
		c-0.704-0.197-1.504-0.295-2.398-0.295C32.64,15.48,31,17.223,31,20.701v12.212h-4.794V19.313z M45.26,2.299
		c0.813,0,1.5,0.28,2.061,0.841c0.561,0.562,0.839,1.25,0.839,2.065c0,0.813-0.278,1.502-0.839,2.063S46.073,8.11,45.26,8.11
		c-0.813,0-1.501-0.281-2.063-0.842c-0.561-0.561-0.842-1.25-0.842-2.063c0-0.815,0.281-1.503,0.842-2.065
		C43.758,2.58,44.446,2.299,45.26,2.299z M42.861,14.007c0-0.786,0.224-1.354,0.673-1.706c0.447-0.35,1.078-0.527,1.894-0.527
		c0.502,0,0.966,0.063,1.387,0.19c0.421,0.125,0.699,0.22,0.84,0.274v20.675h-4.794V14.007z M58.509,32.916
		c-1.32-2.444-2.523-4.737-3.617-6.886c-1.096-2.148-2.034-4.063-2.819-5.747c-0.785-1.686-1.388-3.089-1.809-4.213
		c-0.421-1.123-0.631-1.854-0.631-2.188c0-0.592,0.195-1.089,0.59-1.497c0.392-0.408,0.995-0.609,1.808-0.609
		c0.588,0,1.072,0.055,1.451,0.169c0.379,0.112,0.594,0.194,0.651,0.252c0.561,1.515,1.164,3.054,1.809,4.612
		c0.644,1.559,1.282,3.031,1.914,4.421c0.631,1.388,1.221,2.652,1.767,3.79c0.546,1.136,1.002,2.069,1.368,2.8
		c0.532-1.011,1.107-2.203,1.723-3.577c0.618-1.377,1.212-2.738,1.789-4.087c0.575-1.348,1.094-2.575,1.557-3.685
		s0.789-1.916,0.989-2.422c0.28-0.701,0.616-1.256,1.008-1.664c0.392-0.408,1.008-0.609,1.85-0.609c0.785,0,1.422,0.134,1.914,0.398
		c0.491,0.268,0.765,0.428,0.82,0.484c-0.167,0.59-0.456,1.398-0.861,2.423c-0.406,1.026-0.896,2.168-1.471,3.433
		c-0.576,1.263-1.192,2.582-1.85,3.957c-0.66,1.376-1.313,2.718-1.958,4.022c-0.645,1.307-1.254,2.521-1.83,3.643
		c-0.575,1.125-1.059,2.05-1.449,2.78H58.509z M92.955,31.357c-0.226,0.14-0.574,0.337-1.05,0.59
		c-0.478,0.254-1.074,0.49-1.789,0.717c-0.715,0.226-1.543,0.421-2.481,0.589c-0.94,0.169-1.971,0.253-3.091,0.253
		c-1.572,0-3.036-0.239-4.397-0.717c-1.361-0.477-2.552-1.187-3.575-2.125c-1.021-0.942-1.828-2.093-2.418-3.454
		c-0.587-1.361-0.883-2.927-0.883-4.695c0-1.684,0.287-3.223,0.864-4.612c0.572-1.39,1.372-2.582,2.396-3.58
		c1.021-0.995,2.229-1.769,3.617-2.316c1.388-0.548,2.911-0.82,4.566-0.82c1.456,0,2.745,0.188,3.867,0.568
		c1.12,0.379,2.067,0.883,2.841,1.517c0.77,0.632,1.35,1.368,1.745,2.21c0.395,0.844,0.588,1.74,0.588,2.695
		c0,0.982-0.182,1.875-0.546,2.675c-0.366,0.8-1.011,1.488-1.934,2.064c-0.925,0.575-2.174,1.024-3.744,1.347
		c-1.572,0.324-3.562,0.484-5.973,0.484c-0.562,0-1.087-0.007-1.576-0.022c-0.491-0.013-1.017-0.035-1.578-0.063
		c0.226,1.434,0.918,2.591,2.082,3.475c1.162,0.886,2.824,1.326,4.985,1.326c0.728,0,1.401-0.055,2.019-0.166
		c0.614-0.112,1.168-0.253,1.662-0.424c0.489-0.166,0.91-0.335,1.26-0.504c0.351-0.167,0.609-0.294,0.778-0.379L92.955,31.357z
		 M78.191,21.377c0.644,0.028,1.26,0.041,1.85,0.041h1.767c1.543,0,2.791-0.099,3.744-0.293c0.954-0.197,1.697-0.45,2.229-0.759
		c0.533-0.31,0.884-0.66,1.05-1.053c0.169-0.392,0.254-0.8,0.254-1.221c0-1.067-0.43-1.868-1.283-2.399
		c-0.854-0.535-1.914-0.801-3.176-0.801c-1.037,0-1.949,0.182-2.733,0.546c-0.787,0.366-1.444,0.851-1.977,1.453
		s-0.947,1.3-1.241,2.085C78.382,19.761,78.22,20.563,78.191,21.377z M96.275,19.313c0-2.584,0.794-4.585,2.377-6.001
		c1.585-1.419,3.778-2.129,6.585-2.129c1.765,0,3.202,0.248,4.31,0.738c1.106,0.491,1.661,1.243,1.661,2.254
		c0,0.476-0.134,0.94-0.398,1.39c-0.268,0.449-0.484,0.729-0.653,0.842c-0.479-0.226-1.065-0.435-1.768-0.632
		c-0.701-0.197-1.499-0.295-2.396-0.295c-3.279,0-4.921,1.742-4.921,5.221v12.212h-4.797V19.313z M112.848,27.65
		c0.195,0.141,0.548,0.324,1.053,0.548c0.504,0.226,1.129,0.456,1.872,0.695c0.743,0.238,1.589,0.442,2.542,0.611
		c0.956,0.169,1.993,0.252,3.113,0.252c1.46,0,2.65-0.188,3.575-0.567c0.927-0.38,1.39-1.032,1.39-1.96
		c0-0.785-0.298-1.381-0.886-1.789c-0.587-0.407-1.64-0.694-3.154-0.863l-3.279-0.379c-1.122-0.112-2.15-0.313-3.091-0.612
		c-0.94-0.293-1.747-0.692-2.418-1.198c-0.673-0.507-1.199-1.13-1.578-1.875c-0.377-0.743-0.567-1.635-0.567-2.674
		c0-0.899,0.175-1.747,0.525-2.548c0.349-0.8,0.903-1.508,1.66-2.126c0.758-0.618,1.747-1.103,2.968-1.453
		c1.219-0.351,2.698-0.526,4.437-0.526c2.916,0,5.18,0.322,6.791,0.967c1.613,0.646,2.42,1.49,2.42,2.527
		c0,0.338-0.063,0.631-0.19,0.886c-0.125,0.252-0.266,0.478-0.421,0.673c-0.153,0.197-0.315,0.359-0.482,0.484
		c-0.169,0.127-0.294,0.204-0.379,0.232c-0.112-0.111-0.359-0.289-0.736-0.525c-0.377-0.239-0.891-0.479-1.535-0.717
		c-0.645-0.237-1.416-0.449-2.313-0.632c-0.898-0.183-1.936-0.274-3.112-0.274c-3.253,0-4.88,0.857-4.88,2.569
		c0,0.729,0.307,1.284,0.925,1.664c0.618,0.379,1.5,0.638,2.65,0.778l4.29,0.548c2.326,0.309,4.134,0.947,5.426,1.916
		c1.288,0.969,1.936,2.394,1.936,4.274c0,2.106-0.836,3.79-2.504,5.055c-1.668,1.263-4.072,1.895-7.212,1.895
		c-1.515,0-2.891-0.112-4.123-0.338c-1.232-0.224-2.306-0.484-3.218-0.778c-0.91-0.294-1.646-0.583-2.208-0.863
		c-0.561-0.281-0.925-0.491-1.091-0.632L112.848,27.65z M153.353,32.832c-0.28,0.058-0.723,0.119-1.323,0.188
		c-0.605,0.07-1.313,0.141-2.125,0.211c-0.815,0.07-1.727,0.134-2.735,0.19c-1.008,0.055-2.061,0.084-3.154,0.084
		c-2.188,0-3.975-0.191-5.361-0.568c-1.388-0.379-2.484-0.883-3.282-1.517c-0.8-0.632-1.344-1.361-1.642-2.19
		c-0.292-0.828-0.438-1.677-0.438-2.547c0-1.15,0.171-2.161,0.524-3.031c0.348-0.873,0.925-1.603,1.723-2.19
		c0.8-0.592,1.846-1.032,3.137-1.328c1.287-0.294,2.858-0.44,4.709-0.44c1.064,0,2.073,0.035,3.029,0.103
		c0.951,0.072,1.668,0.136,2.146,0.191c0-0.982-0.164-1.798-0.486-2.442c-0.322-0.646-0.765-1.15-1.324-1.518
		c-0.561-0.363-1.234-0.615-2.019-0.756c-0.785-0.143-1.653-0.213-2.606-0.213c-1.598,0-2.881,0.185-3.848,0.549
		c-0.971,0.365-1.608,0.673-1.915,0.925c-0.169-0.138-0.399-0.405-0.695-0.8c-0.294-0.391-0.44-0.868-0.44-1.432
		c0-0.393,0.103-0.778,0.313-1.158c0.21-0.379,0.581-0.714,1.115-1.01c0.533-0.294,1.248-0.526,2.146-0.695
		c0.896-0.169,2.032-0.252,3.404-0.252c1.655,0,3.163,0.163,4.522,0.482c1.361,0.324,2.531,0.838,3.512,1.539
		c0.981,0.701,1.747,1.629,2.293,2.779s0.821,2.543,0.821,4.169V32.832z M148.599,23.483c-0.281-0.055-0.807-0.141-1.576-0.255
		c-0.774-0.111-1.93-0.168-3.471-0.168c-1.906,0-3.294,0.289-4.164,0.863c-0.871,0.576-1.303,1.481-1.303,2.716
		c0,0.507,0.09,0.972,0.27,1.39c0.187,0.424,0.5,0.78,0.949,1.074c0.447,0.296,1.059,0.52,1.828,0.676
		c0.771,0.155,1.734,0.229,2.883,0.229c1.289,0,2.313-0.048,3.071-0.146c0.754-0.099,1.263-0.176,1.513-0.232V23.483z
		 M157.22,20.155c0-1.405,0.261-2.661,0.778-3.771c0.52-1.108,1.234-2.049,2.146-2.82c0.91-0.771,1.991-1.361,3.24-1.77
		c1.245-0.405,2.613-0.611,4.1-0.611c1.485,0,2.86,0.206,4.121,0.611c1.263,0.408,2.35,0.998,3.262,1.77
		c0.909,0.771,1.617,1.712,2.124,2.82c0.504,1.109,0.756,2.365,0.756,3.771v12.761h-4.796V21.377c0-1.909-0.461-3.363-1.386-4.357
		c-0.927-0.998-2.286-1.498-4.081-1.498c-1.822,0-3.189,0.5-4.1,1.498c-0.912,0.994-1.368,2.448-1.368,4.357v11.539h-4.796V20.155z
		 M198.691,4.11c0-0.759,0.215-1.32,0.651-1.686c0.436-0.364,1.059-0.545,1.874-0.545c0.502,0,0.965,0.061,1.386,0.188
		c0.421,0.127,0.699,0.217,0.842,0.274v18.992c0,2.052-0.29,3.834-0.864,5.349c-0.574,1.517-1.363,2.779-2.374,3.79
		c-1.008,1.013-2.203,1.771-3.573,2.275c-1.376,0.506-2.876,0.756-4.504,0.756c-1.655,0-3.175-0.278-4.564-0.839
		c-1.386-0.563-2.584-1.333-3.595-2.317c-1.009-0.982-1.802-2.161-2.376-3.538c-0.574-1.374-0.862-2.865-0.862-4.463
		c0-1.629,0.274-3.124,0.82-4.485c0.548-1.36,1.305-2.54,2.271-3.538c0.97-0.995,2.104-1.769,3.407-2.316
		c1.307-0.548,2.727-0.82,4.27-0.82c1.625,0,3.059,0.316,4.29,0.947c1.232,0.631,2.201,1.396,2.902,2.295V4.11z M198.691,22.346
		c0-0.954-0.162-1.854-0.484-2.696s-0.765-1.571-1.324-2.19c-0.561-0.617-1.24-1.1-2.041-1.451
		c-0.798-0.353-1.674-0.527-2.626-0.527c-0.984,0-1.865,0.175-2.652,0.527c-0.784,0.352-1.464,0.826-2.038,1.432
		c-0.577,0.604-1.018,1.326-1.326,2.168c-0.31,0.844-0.463,1.754-0.463,2.738c0,0.981,0.153,1.89,0.463,2.716
		c0.309,0.829,0.749,1.543,1.326,2.146c0.574,0.604,1.254,1.082,2.038,1.434c0.787,0.351,1.668,0.525,2.652,0.525
		c0.952,0,1.828-0.169,2.626-0.504c0.801-0.338,1.48-0.803,2.041-1.39c0.56-0.592,1.002-1.307,1.324-2.15
		C198.529,24.281,198.691,23.356,198.691,22.346z"/>
	<g>
		<path id="Fill-26" fill="#38B449" d="M8.891,15.451c0,2.457-1.99,4.45-4.446,4.45C1.99,19.901,0,17.908,0,15.451
			C0,12.992,1.99,11,4.445,11C6.901,11,8.891,12.992,8.891,15.451"/>
		<path id="Fill-26_1_" fill="#0EB1E7" d="M8.891,5.208c0,2.457-1.99,4.45-4.446,4.45C1.99,9.658,0,7.665,0,5.208
			c0-2.459,1.99-4.452,4.445-4.452C6.901,0.756,8.891,2.749,8.891,5.208"/>
		<path id="Fill-28" fill="#775EA8" d="M8.891,25.123c0,2.457-1.99,4.45-4.446,4.45C1.99,29.573,0,27.58,0,25.123
			c0-2.46,1.99-4.452,4.445-4.452C6.901,20.671,8.891,22.663,8.891,25.123"/>
		<path id="Fill-30" fill="#F68E1E" d="M19.419,15.451c0,2.457-1.99,4.45-4.445,4.45s-4.446-1.993-4.446-4.45
			c0-2.459,1.991-4.452,4.446-4.452S19.419,12.992,19.419,15.451"/>
		<path id="Fill-32" fill="#F4D20E" d="M19.419,25.123c0,2.457-1.99,4.45-4.445,4.45s-4.446-1.993-4.446-4.45
			c0-2.46,1.991-4.452,4.446-4.452S19.419,22.663,19.419,25.123"/>
		<path id="Fill-34" fill="#ED224B" d="M19.419,34.794c0,2.458-1.99,4.45-4.445,4.45s-4.446-1.992-4.446-4.45
			c0-2.459,1.991-4.452,4.446-4.452S19.419,32.335,19.419,34.794"/>
	</g>
</g>
</svg>